Patient5_TMGait_0pt45_1_right_04_GRF.mot
version=1
nRows=39
nColumns=19
inDegrees=no
endheader
time	F1x	F1y	F1z	M1x	M1y	M1z	F2x	F2y	F2z	M2x	M2y	M2z	EC1x	EC1y	EC1z	EC2x	EC2y	EC2z
6.11	9.5945	866.364	35.1716	-311.0873	-27.1216	819.2752	-1.47	-9.3206	-2.8528	-1.7145	3.2074	-12.6187	-0.0592	0.0182	-0.0073	-0.0462	0.0165	0.9585
6.1279	7.0737	866.1393	32.8479	-311.6595	-25.4461	812.8832	-0.78848	-5.0274	-1.4734	-0.85742	1.7082	-6.7911	-0.0592	0.0182	-0.0073	-0.0462	0.0165	0.9585
6.1459	5.9041	867.385	29.7127	-313.3662	-22.891	806.9113	-0.28726	-1.7165	-0.47426	-0.1775	0.59667	-2.2919	-0.0592	0.0182	-0.0073	-0.0462	0.0165	0.9585
6.1638	6.3575	871.0744	26.0806	-316.3864	-19.6453	802.704	0.018615	0.42463	0.13483	0.26981	-0.091895	0.59266	-0.0592	0.0182	-0.0073	-0.0462	0.0165	0.9585
6.1817	8.2627	876.6118	22.5731	-320.1766	-16.2347	800.1616	0.16397	1.578	0.44507	0.51253	-0.44148	2.1098	-0.0592	0.0182	-0.0073	-0.0462	0.0165	0.9585
6.1996	11.1332	881.897	19.8546	-323.6234	-13.3134	797.8122	0.19991	2.0455	0.55627	0.61218	-0.56294	2.6845	-0.0592	0.0182	-0.0073	-0.0462	0.0165	0.9585
6.2176	14.3138	884.451	18.3543	-325.5563	-11.3952	793.7975	0.17818	2.1298	0.54578	0.63959	-0.54878	2.7467	-0.0592	0.0182	-0.0073	-0.0462	0.0165	0.9585
6.2355	17.1844	882.6666	18.1586	-325.2607	-10.7015	786.9046	0.14001	2.0619	0.47155	0.64827	-0.4701	2.6102	-0.0592	0.0182	-0.0073	-0.0462	0.0165	0.9585
6.2534	19.3743	876.4692	19.0224	-322.7245	-11.0974	777.0595	0.10403	1.9702	0.37839	0.65888	-0.38167	2.4376	-0.0592	0.0182	-0.0073	-0.0462	0.0165	0.9585
6.2714	20.8194	867.0916	20.5336	-318.5185	-12.2197	765.1725	0.066858	1.8941	0.28854	0.67046	-0.30253	2.2736	-0.0592	0.0182	-0.0073	-0.0462	0.0165	0.9585
6.2893	21.6563	856.3963	22.334	-313.484	-13.7018	752.636	0.023867	1.8167	0.21911	0.67094	-0.23807	2.1203	-0.0592	0.0182	-0.0073	-0.0462	0.0165	0.9585
6.3072	22.07	846.0938	24.2694	-308.4068	-15.3545	740.7387	-0.029959	1.6693	0.17315	0.63304	-0.17798	1.9185	-0.0592	0.0182	-0.0073	-0.0462	0.0165	0.9585
6.3251	22.2537	837.1985	26.3683	-303.8083	-17.1621	730.2197	-0.096408	1.3195	0.13622	0.50595	-0.10842	1.5207	-0.0592	0.0182	-0.0073	-0.0462	0.0165	0.9585
6.3431	22.4768	830.0595	28.7042	-299.9558	-19.1353	721.27	-0.1661	0.58025	0.098621	0.21693	-0.026522	0.73189	-0.0592	0.0182	-0.0073	-0.0462	0.0165	0.9585
6.361	23.0647	824.7632	31.295	-297.0064	-21.2195	713.8527	-0.2109	-0.72387	0.063401	-0.30587	0.044386	-0.6271	-0.0592	0.0182	-0.0073	-0.0462	0.0165	0.9585
6.3789	24.3327	821.5304	34.077	-295.1356	-23.2759	708.0306	-0.18024	-2.6756	0.036911	-1.0976	0.063351	-2.6414	-0.0592	0.0182	-0.0073	-0.0462	0.0165	0.9585
6.3969	26.4874	820.783	36.9607	-294.5416	-25.1618	704.0529	0.0092828	-5.1105	0.046781	-2.0939	-0.036252	-5.1618	-0.0592	0.0182	-0.0073	-0.0462	0.0165	0.9585
6.4148	29.6229	822.8924	39.8904	-295.3503	-26.7881	702.1498	0.47119	-7.3997	0.12884	-3.037	-0.3351	-7.5599	-0.0592	0.0182	-0.0073	-0.0462	0.0165	0.9585
6.4327	33.7085	827.839	42.8499	-297.4995	-28.1182	702.2406	1.3398	-8.1801	0.31431	-3.363	-0.91123	-8.4249	-0.0592	0.0182	-0.0073	-0.0462	0.0165	0.9585
6.4506	38.6416	834.9083	45.8201	-300.6506	-29.1212	703.6857	2.7125	-5.0754	0.63193	-2.09	-1.8143	-5.2482	-0.0592	0.0182	-0.0073	-0.0462	0.0165	0.9585
6.4686	44.2515	842.768	48.7428	-304.2361	-29.7573	705.3922	4.5341	5.3495	1.0902	2.1947	-3.0036	5.5977	-0.0592	0.0182	-0.0073	-0.0462	0.0165	0.9585
6.4865	50.2804	849.6451	51.4598	-307.5357	-29.936	705.949	6.4406	27.1494	1.6369	11.1509	-4.249	28.4088	-0.0592	0.0182	-0.0073	-0.0462	0.0165	0.9585
6.5044	56.3986	853.464	53.7047	-309.7363	-29.5147	703.7769	7.5425	63.6722	2.1053	26.144	-4.9882	66.7535	-0.0592	0.0182	-0.0073	-0.0462	0.0165	0.9585
6.5224	62.2096	851.9974	55.074	-309.9898	-28.2792	697.2276	6.2099	114.892	2.1429	47.1513	-4.1758	120.6831	-0.0592	0.0182	-0.0073	-0.0462	0.0165	0.9585
6.5403	67.2464	843.04	55.0786	-307.4665	-25.9904	684.7093	0.65817	174.1871	1.3352	71.4372	-0.69644	183.3696	-0.0592	0.0182	-0.0073	-0.0462	0.0165	0.9585
6.5582	71.0667	824.6934	53.3422	-301.4441	-22.5335	664.888	-8.1714	230.0938	-0.28704	94.2014	4.9147	242.8331	-0.0592	0.0182	-0.0073	-0.0462	0.0165	0.9585
6.5761	73.5262	795.9742	49.9576	-291.504	-18.0898	637.1375	-17.3421	271.4275	-3.9556	110.5722	12.5729	287.256	-0.0592	0.0182	-0.0073	-0.0462	0.0165	0.9585
6.5941	74.8768	757.4097	45.6123	-277.7541	-13.1673	601.9835	-24.7835	294.2994	-10.9595	118.731	22.6945	312.4072	-0.0592	0.0182	-0.0073	-0.0462	0.0165	0.9585
6.612	75.6062	711.0042	41.2629	-260.8519	-8.3866	561.0874	-30.2856	304.0503	-20.0856	121.0018	34.0248	323.7432	-0.0592	0.0182	-0.0073	-0.0462	0.0165	0.9585
6.6299	76.1011	659.4857	37.5104	-241.7871	-4.1375	516.7184	-34.4523	308.6729	-28.5768	121.0569	44.1258	329.4325	-0.0592	0.0182	-0.0073	-0.0462	0.0165	0.9585
6.6479	76.4588	605.4558	34.2394	-221.6003	-0.39187	471.0497	-37.7677	315.3929	-34.3441	122.2091	51.1559	336.7523	-0.0592	0.0182	-0.0073	-0.0462	0.0165	0.9585
6.6658	76.4736	550.7497	30.851	-201.1023	3.1318	425.6134	-40.3949	329.4927	-37.144	126.776	54.9392	350.9477	-0.0592	0.0182	-0.0073	-0.0462	0.0165	0.9585
6.6837	75.6885	495.9207	26.6944	-180.6138	6.7016	380.9043	-42.3189	353.6211	-37.7916	135.8548	56.2642	374.5707	-0.0592	0.0182	-0.0073	-0.0462	0.0165	0.9585
6.7016	73.4452	440.3374	21.4576	-159.9675	10.2987	336.473	-43.6418	388.2021	-37.0983	149.5931	55.9657	407.8996	-0.0592	0.0182	-0.0073	-0.0462	0.0165	0.9585
6.7196	69.0342	382.9707	15.3495	-138.8027	13.5362	291.4994	-44.6343	432.654	-35.6741	167.7122	54.7568	450.1978	-0.0592	0.0182	-0.0073	-0.0462	0.0165	0.9585
6.7375	61.9627	323.5037	9.0563	-116.9884	15.7825	245.6388	-45.372	486.0308	-34.1559	189.7771	53.298	500.3238	-0.0592	0.0182	-0.0073	-0.0462	0.0165	0.9585
6.7554	52.2653	263.0803	3.5076	-94.9161	16.421	199.6113	-45.5575	547.0124	-33.1384	215.2037	52.054	556.6967	-0.0592	0.0182	-0.0073	-0.0462	0.0165	0.9585
6.7734	40.6657	204.293	-0.52237	-73.5075	15.2003	155.1792	-44.6978	613.6442	-32.9126	243.1513	51.1128	617.101	-0.0592	0.0182	-0.0073	-0.0462	0.0165	0.9585
6.7913	28.4515	150.4825	-2.7355	-53.965	12.4119	114.6558	-42.3245	683.0252	-33.48	272.3756	50.2921	678.5221	-0.0592	0.0182	-0.0073	-0.0462	0.0165	0.9585
